{
  "source": "C:\\Users\\Peter\\Desktop\\stuff\\MIUN\\quantitative_research\\video_compression\\videos\\BVI-HD\\BVI-HD_CDVL_videos\\ORIG\\PlasmaSlowRandom_1920x1080_60fps.mp4",
  "output": "C:\\Users\\Peter\\Desktop\\stuff\\MIUN\\quantitative_research\\video_compression\\compressed_videos\\BVI-HD\\h264\\2\\PlasmaSlowRandom_1920x1080_60fps_h264.mp4",
  "codec": "h264",
  "ok": "Input #0, mov,mp4,m4a,3gp,3g2,mj2, from 'C:\\Users\\Peter\\Desktop\\stuff\\MIUN\\quantitative_research\\video_compression\\videos\\BVI-HD\\BVI-HD_CDVL_videos\\ORIG\\PlasmaSlowRandom_1920x1080_60fps.mp4':\n  Metadata:\n    major_brand     : isom\n    minor_version   : 512\n    compatible_brands: isomiso2avc1mp41\n    encoder         : Lavf54.28.101\n  Duration: 00:00:05.00, start: 0.000000, bitrate: 23030 kb/s\n  Stream #0:0[0x1](und): Video: h264 (High 4:4:4 Predictive) (avc1 / 0x31637661), yuv420p(progressive), 1920x1080, 23026 kb/s, 60 fps, 60 tbr, 60 tbn (default)\n    Metadata:\n      handler_name    : VideoHandler\n      vendor_id       : [0][0][0][0]\n[out#0/mp4 @ 0000020b1d23a600] Codec AVOption b:a (set bitrate (in bits/s)) has not been used for any stream. The most likely reason is either wrong type (e.g. a video option with no video streams) or that it is a private option of some decoder which was not actually used for any stream.\nStream mapping:\n  Stream #0:0 -> #0:0 (h264 (native) -> h264 (libx264))\nPress [q] to stop, [?] for help\n[libx264 @ 0000020b1d6e4840] using cpu capabilities: MMX2 SSE2Fast SSSE3 SSE4.2 AVX FMA3 BMI2 AVX2\n[libx264 @ 0000020b1d6e4840] profile High, level 5.0, 4:2:0, 8-bit\n[libx264 @ 0000020b1d6e4840] 264 - core 165 r3222 b35605a - H.264/MPEG-4 AVC codec - Copyleft 2003-2025 - http://www.videolan.org/x264.html - options: cabac=1 ref=5 deblock=1:0:0 analyse=0x3:0x113 me=hex subme=8 psy=1 psy_rd=1.00:0.00 mixed_ref=1 me_range=16 chroma_me=1 trellis=2 8x8dct=1 cqm=0 deadzone=21,11 fast_pskip=1 chroma_qp_offset=-2 threads=18 lookahead_threads=3 sliced_threads=0 nr=0 decimate=1 interlaced=0 bluray_compat=0 constrained_intra=0 bframes=3 b_pyramid=2 b_adapt=1 b_bias=0 direct=3 weightb=1 open_gop=0 weightp=2 keyint=250 keyint_min=25 scenecut=40 intra_refresh=0 rc_lookahead=50 rc=cbr mbtree=1 bitrate=2000 ratetol=1.0 qcomp=0.60 qpmin=0 qpmax=69 qpstep=4 vbv_maxrate=2000 vbv_bufsize=2000 nal_hrd=none filler=0 ip_ratio=1.40 aq=1:1.00\nOutput #0, mp4, to 'C:\\Users\\Peter\\Desktop\\stuff\\MIUN\\quantitative_research\\video_compression\\compressed_videos\\BVI-HD\\h264\\2\\PlasmaSlowRandom_1920x1080_60fps_h264.mp4':\n  Metadata:\n    major_brand     : isom\n    minor_version   : 512\n    compatible_brands: isomiso2avc1mp41\n    encoder         : Lavf62.3.100\n  Stream #0:0(und): Video: h264 (avc1 / 0x31637661), yuv420p(tv, progressive), 1920x1080, q=2-31, 2000 kb/s, 60 fps, 15360 tbn (default)\n    Metadata:\n      encoder         : Lavc62.11.100 libx264\n      handler_name    : VideoHandler\n      vendor_id       : [0][0][0][0]\n    Side data:\n      cpb: bitrate max/min/avg: 2000000/0/2000000 buffer size: 2000000 vbv_delay: N/A\nframe=    0 fps=0.0 q=0.0 size=       0KiB time=N/A bitrate=N/A speed=N/A elapsed=0:00:00.51    \nframe=   28 fps= 27 q=27.0 size=       0KiB time=00:00:00.43 bitrate=   0.9kbits/s speed=0.419x elapsed=0:00:01.03    \nframe=  100 fps= 64 q=27.0 size=     256KiB time=00:00:01.56 bitrate=1338.9kbits/s speed=1.01x elapsed=0:00:01.55    \nframe=  146 fps= 70 q=28.0 size=     256KiB time=00:00:02.40 bitrate= 874.0kbits/s speed=1.15x elapsed=0:00:02.09    \nframe=  199 fps= 76 q=27.0 size=     512KiB time=00:00:03.28 bitrate=1277.6kbits/s speed=1.26x elapsed=0:00:02.61    \nframe=  279 fps= 89 q=25.0 size=     768KiB time=00:00:04.55 bitrate=1382.8kbits/s speed=1.45x elapsed=0:00:03.13    \n[mp4 @ 0000020b1d23a700] Starting second pass: moving the moov atom to the beginning of the file\n[out#0/mp4 @ 0000020b1d23a600] video:1096KiB audio:0KiB subtitle:0KiB other streams:0KiB global headers:0KiB muxing overhead: 0.398780%\nframe=  300 fps= 93 q=-1.0 Lsize=    1100KiB time=00:00:04.96 bitrate=1814.7kbits/s speed=1.54x elapsed=0:00:03.23    \n[libx264 @ 0000020b1d6e4840] frame I:3     Avg QP: 8.15  size:  7913\n[libx264 @ 0000020b1d6e4840] frame P:76    Avg QP:17.79  size:  4991\n[libx264 @ 0000020b1d6e4840] frame B:221   Avg QP:21.15  size:  3250\n[libx264 @ 0000020b1d6e4840] consecutive B-frames:  1.3%  1.3%  0.0% 97.3%\n[libx264 @ 0000020b1d6e4840] mb I  I16..4: 95.6%  4.3%  0.1%\n[libx264 @ 0000020b1d6e4840] mb P  I16..4:  1.1%  3.8%  0.1%  P16..4:  1.3%  0.4%  0.1%  0.0%  0.0%    skip:93.3%\n[libx264 @ 0000020b1d6e4840] mb B  I16..4:  0.0%  0.5%  0.0%  B16..8:  2.6%  1.2%  0.2%  direct: 0.3%  skip:95.1%  L0:47.5% L1:41.7% BI:10.8%\n[libx264 @ 0000020b1d6e4840] 8x8 transform intra:52.0% inter:97.9%\n[libx264 @ 0000020b1d6e4840] direct mvs  spatial:95.5% temporal:4.5%\n[libx264 @ 0000020b1d6e4840] coded y,uvDC,uvAC intra: 32.2% 43.5% 41.0% inter: 1.4% 2.4% 1.1%\n[libx264 @ 0000020b1d6e4840] i16 v,h,dc,p: 97%  1%  1%  1%\n[libx264 @ 0000020b1d6e4840] i8 v,h,dc,ddl,ddr,vr,hd,vl,hu: 13% 12% 26%  6%  9%  8% 11%  7%  9%\n[libx264 @ 0000020b1d6e4840] i4 v,h,dc,ddl,ddr,vr,hd,vl,hu: 10% 13%  8%  7% 16% 11% 17%  8% 10%\n[libx264 @ 0000020b1d6e4840] i8c dc,h,v,p: 76% 10%  7%  7%\n[libx264 @ 0000020b1d6e4840] Weighted P-Frames: Y:1.3% UV:1.3%\n[libx264 @ 0000020b1d6e4840] ref P L0: 56.4%  3.4% 19.3% 11.3%  9.5%  0.2%\n[libx264 @ 0000020b1d6e4840] ref B L0: 81.7% 12.9%  4.1%  1.3%\n[libx264 @ 0000020b1d6e4840] ref B L1: 96.6%  3.4%\n[libx264 @ 0000020b1d6e4840] kb/s:1794.26\n",
  "seconds": 3.4198122024536133,
  "probe_out": {}
}